<?xml version="1.0" standalone="no"?>
<!DOCTYPE svg PUBLIC "-//W3C//DTD SVG 20010904//EN"
 "http://www.w3.org/TR/2001/REC-SVG-20010904/DTD/svg10.dtd">
<svg version="1.0" xmlns="http://www.w3.org/2000/svg"
 width="225.000000pt" height="225.000000pt" viewBox="0 0 225.000000 225.000000"
 preserveAspectRatio="xMidYMid meet">
<metadata>
Created by potrace 1.11, written by Peter Selinger 2001-2013
</metadata>
<g transform="translate(0.000000,225.000000) scale(0.100000,-0.100000)"
fill="#000000" stroke="none">
<path d="M692 1920 c-171 -24 -337 -116 -449 -251 -78 -96 -153 -274 -153
-367 0 -22 -8 -40 -23 -55 -48 -45 -58 -87 -33 -136 14 -26 13 -32 -10 -76
-13 -27 -24 -64 -24 -82 0 -42 24 -100 55 -133 21 -23 23 -35 27 -155 4 -108
8 -139 27 -182 28 -64 81 -114 147 -139 47 -18 89 -19 874 -19 l825 0 57 28
c64 31 101 70 132 137 16 36 21 72 24 175 4 120 6 132 27 155 31 33 55 91 55
133 0 18 -11 55 -24 82 -22 43 -23 50 -10 69 26 38 18 89 -21 130 -25 27 -35
47 -35 70 0 53 -28 147 -70 231 -70 142 -173 245 -315 315 -146 72 -152 73
-610 76 -226 1 -439 -2 -473 -6z m356 -1155 c-2 -3 -75 -43 -161 -89 l-156
-85 -158 86 c-87 46 -160 87 -162 89 -2 2 141 4 319 4 178 0 321 -2 318 -5z"/>
</g>
</svg>
